<?xml version="1.0" encoding="iso-8859-1"?>
<!-- Generator: Adobe Illustrator 19.0.0, SVG Export Plug-In . SVG Version: 6.00 Build 0)  -->
<svg version="1.1" id="Layer_1" xmlns="http://www.w3.org/2000/svg" xmlns:xlink="http://www.w3.org/1999/xlink" x="0px" y="0px"
	 viewBox="0 0 496.2 496.2" style="enable-background:new 0 0 496.2 496.2;" xml:space="preserve">
<path style="fill:#32BEA6;" d="M496.2,248.1C496.2,111.1,385.1,0,248.1,0S0,111.1,0,248.1s111.1,248.1,248.1,248.1
	S496.2,385.1,496.2,248.1z"/>
<path style="fill:#E5AA17;" d="M372.6,372.6c68.8-68.8,68.8-180.3,0-249c-68.8-68.8-180.2-68.8-249,0s-68.8,180.2,0,249
	S303.8,441.4,372.6,372.6z"/>
<path style="fill:#D69A16;" d="M372.6,372.6c68.8-68.8,68.8-180.3,0-249l-249,249C192.4,441.4,303.8,441.4,372.6,372.6z"/>
<path style="fill:#EFB533;" d="M362,362c62.9-62.9,62.9-164.9,0-227.8s-164.9-62.9-227.8,0s-62.9,164.9,0,227.8S299.1,424.9,362,362
	z"/>
<path style="fill:#E5AA17;" d="M362,362c62.9-62.9,62.9-164.9,0-227.8L134.2,362C197.1,424.9,299.1,424.9,362,362z"/>
<path style="fill:#E5E1D8;" d="M344.3,344.3c53.1-53.1,53.1-139.3,0-192.4s-139.3-53.1-192.4,0s-53.1,139.3,0,192.4
	C205,397.5,291.2,397.5,344.3,344.3z"/>
<path style="fill:#D8D3C3;" d="M344.3,344.3c53.1-53.1,53.1-139.3,0-192.4L151.9,344.3C205,397.5,291.2,397.5,344.3,344.3z"/>
<path style="fill:#E5AA17;" d="M175.9,240.7c-8.7,0-12.5-4.2-12.5-10v-2.5c0-5.5,3.7-9.7,12.5-9.7h11c7.5-33.9,32.9-54.4,67.8-54.4
	c33.4,0,53.4,16.5,53.4,32.4c0,13-16.2,18.7-17.2,17.4c-9-13-18.5-19.9-36.2-19.9c-15.7,0-27.4,8.7-32.7,24.4h39.7
	c8.7,0,12.5,4.2,12.5,9.7v2.5c0,5.7-3.7,10-12.5,10h-42.6v14.5h42.6c8.7,0,12.5,4.2,12.5,9.7v2.5c0,5.5-3.7,9.7-12.5,9.7H222
	c5.2,15.7,17.5,24.9,33.7,24.9c17.7,0,27.2-7.5,35.4-21.2c1.2-1.5,17.7,4.5,17.7,17.5c0,14.2-17.2,33.7-53.4,33.7
	s-61.6-20.2-68.8-54.9c0.2,0-10.7,0-10.7,0c-8.7,0-12.5-4.2-12.5-9.7v-2.5c0-5.5,3.7-9.7,12.5-9.7h8.7v-14.5h-8.7V240.7z"/>
<path style="fill:#EFB533;" d="M219,255.2v-14.5h36.4l17.4-17.4c-1.7-2.9-5.3-4.8-11.2-4.8h-39.7c5.2-15.7,17-24.4,32.7-24.4
	c15.3,0,24.4,5.2,32.4,15l19.6-19.6c-4.9-13.4-23.6-25.3-52-25.3c-34.9,0-60.3,20.4-67.8,54.4h-11c-8.7,0-12.5,4.2-12.5,9.7v2.5
	c0,5.7,3.7,10,12.5,10h8.7v14.5h-8.7c-8.7,0-12.5,4.2-12.5,9.7v2.5c0,5.5,3.7,9.7,12.5,9.7c0,0,11,0,10.7,0
	c1.8,8.8,4.9,16.7,8.9,23.5l45.5-45.5L219,255.2L219,255.2z"/>
<g>
	<path style="fill:#E5AA17;" d="M290.8,214.1c1,1.3,17.2-4.5,17.2-17.4c0-2.4-0.5-4.8-1.3-7.1l-19.6,19.5
		C288.4,210.6,289.6,212.3,290.8,214.1z"/>
	<path style="fill:#E5AA17;" d="M261.7,240.7c8.7,0,12.5-4.2,12.5-10v-2.5c0-1.8-0.4-3.5-1.3-4.9l-17.4,17.4H261.7z"/>
</g>
<g>
</g>
<g>
</g>
<g>
</g>
<g>
</g>
<g>
</g>
<g>
</g>
<g>
</g>
<g>
</g>
<g>
</g>
<g>
</g>
<g>
</g>
<g>
</g>
<g>
</g>
<g>
</g>
<g>
</g>
</svg>
